<?xml version="1.0" standalone="no"?>
<!DOCTYPE svg PUBLIC "-//W3C//DTD SVG 20010904//EN"
 "http://www.w3.org/TR/2001/REC-SVG-20010904/DTD/svg10.dtd">
<svg version="1.0" xmlns="http://www.w3.org/2000/svg"
 width="700.000000pt" height="700.000000pt" viewBox="0 0 700.000000 700.000000"
 preserveAspectRatio="xMidYMid meet">
<metadata>
Created by potrace 1.11, written by Peter Selinger 2001-2013
</metadata>
<g transform="translate(0.000000,700.000000) scale(0.100000,-0.100000)"
fill="#000000" stroke="none">
<path d="M1735 5455 c-95 -22 -171 -80 -216 -165 -35 -66 -34 -195 1 -263 30
-60 96 -121 158 -149 86 -37 236 -29 310 18 140 88 194 257 127 398 -60 127
-226 197 -380 161z"/>
<path d="M1563 3348 c0 -960 -3 -1194 -18 -1248 -21 -77 -89 -152 -162 -180
-95 -35 -275 -16 -370 40 -20 11 -39 17 -44 13 -4 -4 -40 -89 -79 -188 -80
-205 -82 -186 25 -235 71 -32 160 -55 255 -65 66 -7 239 -7 285 0 191 29 357
118 457 245 75 96 123 206 149 350 9 48 12 370 13 1238 l1 1172 -256 0 -256 0
0 -1142z"/>
<path d="M2435 4473 c4 -10 17 -47 30 -83 12 -36 36 -101 53 -145 33 -87 336
-912 409 -1115 25 -69 57 -154 70 -190 14 -36 43 -112 63 -170 21 -58 68 -186
104 -284 36 -99 66 -181 66 -183 0 -1 111 -3 248 -3 l247 0 74 198 c41 108 79
211 86 227 7 17 30 75 50 130 20 55 41 109 46 120 4 11 56 146 114 300 59 154
117 307 129 340 13 33 32 83 41 110 19 52 45 91 45 67 0 -7 115 -320 256 -695
141 -375 266 -708 277 -739 l20 -58 247 0 246 0 133 363 c73 199 139 376 147
394 8 17 14 34 14 37 0 3 36 104 81 223 44 120 98 265 119 323 45 123 139 377
239 648 39 106 71 195 71 197 0 3 -102 4 -227 3 l-226 -3 -113 -305 c-62 -168
-116 -314 -119 -325 -4 -11 -9 -24 -10 -30 -3 -9 -38 -103 -98 -265 -13 -36
-66 -180 -116 -320 -51 -140 -97 -264 -102 -275 -5 -11 -15 -37 -22 -59 l-13
-39 -116 319 c-64 176 -197 541 -295 811 l-178 493 -216 0 -217 0 -22 -62
c-13 -35 -28 -74 -33 -88 -6 -14 -11 -29 -13 -35 -1 -5 -47 -129 -102 -275
-55 -146 -130 -346 -167 -445 -202 -543 -247 -662 -257 -683 -12 -23 -12 -22
-24 15 -12 42 -116 331 -329 923 -87 241 -147 410 -193 543 l-37 107 -243 0
c-229 0 -244 -1 -237 -17z"/>
</g>
</svg>
