<svg xmlns="http://www.w3.org/2000/svg" width="40" height="40" viewBox="0 0 1000 1000"><title>Follow me on CodePen</title><path d="M345 484l-118-79 252-167v156l-134 90zm-134-42v132l98-66-98-66zm560-37L519 238v156l134 90 118-79zM227 611l252 167V622l-134-90-118 79zm773-111A500 500 0 1 1 0 500a500 500 0 0 1 1000 0zm-173-95a18 18 0 0 0-4-12l-5-5-308-204a20 20 0 0 0-22 0L181 388a20 20 0 0 0-10 17v206a20 20 0 0 0 10 17l307 204a20 20 0 0 0 22 0l308-204a20 20 0 0 0 9-17V405zm-40 169V442l-98 66 98 66zM499 429l-118 79 118 79 118-79-118-79zm20 193v156l252-167-118-79-134 90z"/></svg>