<svg xmlns="http://www.w3.org/2000/svg" viewBox="0 0 1000 1000"><svg xmlns="http://www.w3.org/2000/svg" viewBox="0 0 1000 1000"><path d="M500 0a500 500 0 1 0 0 1000A500 500 0 0 0 500 0zm3 850a350 350 0 0 1-353-345c0-199 155-292 184-306 33-19 58-28 97-59 19-15 35-37 40-90 28 33 62 72 85 88 39 25 77 35 118 61 25 15 176 108 176 312S689 850 503 850zm109-173c12 0 25 1 34 7s15 20 18 28 0 12-6 16c-6 3-6 1-12-9s-10-20-37-20-35 9-48 20-18 15-23 9c-4-7-3-13 6-21 8-7 22-20 35-25 13-6 20-5 32-5zm-128 88c15 12 38 23 88 23 49 0 84-14 99-26 7-5 10-1 11 2 0 3 2 8-3 13-4 4-40 29-81 33s-98 6-132-25c-6-5-4-13 0-16s7-5 11-5l7 1zM302 625c0-60 57-117 128-117 90-1 152 89 198 88 38-1 112-76 149-76 38 0 49 40 49 64s-8 67-26 94c-19 27-30 37-52 36-28-3-83-89-119-91-44-1-141 94-218 94-46 0-60-7-75-17-24-16-35-41-34-75z"/></svg>
