<svg xmlns="http://www.w3.org/2000/svg" viewBox="0 0 1000 1000"><path d="M500 0C224 0 0 224 0 500s224 500 500 500 500-224 500-500S776 0 500 0zm0 800c-266 0-300-45-300-300s41-300 300-300 300 31 300 300-34 300-300 300zm100-300c0 55-45 100-100 100s-100-45-100-100 45-100 100-100 100 45 100 100zM500 254c-212 0-246 37-246 246s28 246 246 246 246-26 246-246-34-246-246-246zm0 400c-85 0-154-69-154-154s69-154 154-154 154 69 154 154-69 154-154 154zm196-314c0 20-16 36-36 36s-36-16-36-36 16-36 36-36 36 16 36 36z"/></svg>
