<svg xmlns="http://www.w3.org/2000/svg" xmlns:xlink="http://www.w3.org/1999/xlink" width="80" height="80" viewBox="0 0 512 512"><title>The blog of James Wilson</title><path d="M158,350c0,12.7-3.6,21.7-10,29c-6.4,7.3-16,11.5-28,11.5c-6.4,0-12.5-0.7-18-2.5 c-4.5-1-9-3-12.5-6l5.5-11c6.5,4.5,13.7,7.6,23.8,7.6c8.2,0,14.6-3,19-7.6s6-12,6-21V193.5 h14V350z M366,336h-13l-48-124l-48,124h-14l-54-143h14l47,127l47.5-127h14L359,320l47-127h14L366,336z M150,140 c-5.5,0-10,4.5-10,10s4.5,10,10,10s10-4.5,10-10S155.5,140,150,140z M256,6C118,6,6,118,6,256 c0,138,112,250,250,250c138,0,250-112,250-250C506,118,394,6,256,6z M256,495 C124,495,17,388,17,256C17,124,124,17,256,17c132,0,239,107,239,239C495,388,388,495,256,495z"/><image xlink:href="/assets/img/avatar.png" height="512" width="512"/></svg>
