<svg xmlns="http://www.w3.org/2000/svg" width="80" height="80" viewBox="0 0 512 512"><title>The blog of James Wilson</title><path d="M352 13c39 0 76 15 104 43s43 65 43 104v192c0 39-15 76-43 104s-65 43-104 43H160c-39 0-76-15-104-43s-43-65-43-104V160c0-39 15-76 43-104s65-43 104-43h192m0-13H160C72 0 0 72 0 160v192c0 88 72 160 160 160h192c88 0 160-72 160-160V160C512 72 440 0 352 0zM149 359c0 14-4 24-11 32s-18 12-31 12c-7 0-13-1-19-3-5-1-10-4-14-7l6-11c7 5 15 8 26 8 9 0 16-3 21-8s7-13 7-23V187h15v172zm1-214c-2 3-5 4-8 4-4 0-7-1-9-3-2-3-4-6-4-9s2-6 4-9c2-2 5-3 9-3a12 12 0 0 1 12 12c0 3-1 6-4 8zm227 199h-14l-53-136-53 136h-14l-60-157h15l52 140 53-140h13l53 140 53-140h14l-59 157z"></path><image xlink:href="https://i.imgur.com/UNe5t4v.jpg" height="512" width="512"/></svg>
