<svg xmlns="http://www.w3.org/2000/svg" width="40" height="40" viewBox="0 0 1000 1000"><title>Tip me on PayPal</title><path d="M500 0a500 500 0 1 0 0 1000A500 500 0 0 0 500 0zM346 759H236c-11 0-19-10-18-20l86-546c3-14 15-25 30-25 223 0 242-6 299 17 89 34 97 116 65 206-32 91-107 131-206 132-63 1-102-10-110 36l-32 196c0 3-1 4-4 4zm431-276c-24 123-105 165-209 165-22 0-37-3-43 29l-22 134c-2 13-13 22-25 22h-93c-11 0-17-9-16-19l40-249c1-9 7-14 16-14 79 0 241 15 300-152 5-17 10-33 13-50 1-4 2-4 4-2 42 31 45 85 35 136z"/></svg>
