<svg xmlns="http://www.w3.org/2000/svg" width="40" height="40" viewBox="0 0 1000 1000"><path d="M931 249a496 496 0 0 1 0 502 496 496 0 0 1-574 228c26-39 42-77 51-107 5-14 16-60 35-137 9 16 26 32 47 44 23 12 46 19 74 19 53 0 100-14 139-45 42-30 73-69 96-123 23-51 35-109 35-174a276 276 0 0 0-151-244c-49-26-103-45-163-45-47 0-89 7-128 19-40 12-72 30-100 49a364 364 0 0 0-114 156 278 278 0 0 0 12 204c16 35 41 58 76 72 14 5 21 0 26-14l5-20 4-19c2-9 0-19-7-28-21-26-32-58-32-98a236 236 0 0 1 244-237c65 0 116 19 153 54 38 35 56 81 56 137 0 74-14 137-44 188s-68 77-114 77c-26 0-47-9-63-28s-21-42-14-67c3-17 10-35 17-61l18-67c5-19 7-35 7-49 0-21-7-40-19-54a60 60 0 0 0-48-21c-28 0-49 12-68 38-18 25-28 55-28 93 0 32 5 58 17 79l-68 272c-7 30-9 67-9 114A511 511 0 0 1 83 774 496 496 0 0 1 250 67a496 496 0 0 1 681 182z"/></svg>
